<?xml version="1.0" encoding="utf-8"?>
<!-- Generator: Adobe Illustrator 16.0.2, SVG Export Plug-In . SVG Version: 6.00 Build 0)  -->
<!DOCTYPE svg PUBLIC "-//W3C//DTD SVG 1.1//EN" "http://www.w3.org/Graphics/SVG/1.1/DTD/svg11.dtd">
<svg version="1.1" id="Capa_1" xmlns="http://www.w3.org/2000/svg" xmlns:xlink="http://www.w3.org/1999/xlink" x="0px" y="0px"
	 width="97.75px" height="97.75px" viewBox="0 0 97.75 97.75" enable-background="new 0 0 97.75 97.75" xml:space="preserve">
<g>
	<path fill="#663366" d="M44.719,97.446c-0.138-0.005-0.269,0.032-0.39,0.09c1.5,0.139,3.016,0.219,4.551,0.219
		c1.906,0,3.784-0.121,5.634-0.333C51.25,97.522,47.984,97.536,44.719,97.446z"/>
	<path fill="#663366" d="M49.444,10.856C50.696,10.898,65.326,11.301,49.444,10.856L49.444,10.856z"/>
	<path fill="#663366" d="M97.76,48.875c0-26.99-21.891-48.88-48.88-48.88C21.89-0.005,0,21.885,0,48.875
		C0,74.33,19.473,95.239,44.329,97.536c0.122-0.058,0.252-0.095,0.39-0.09c3.265,0.09,6.531,0.076,9.794-0.024
		C78.85,94.625,97.76,73.959,97.76,48.875z M81.196,73.838c-1.83,3.891-4.496,7.125-8.342,9.193
		c-1.087,0.581-2.384,0.771-3.608,1.146c-1.408-0.427-2.75-0.714-3.998-1.231c-12.915-5.36-24.804-12.273-34.22-22.87
		c-5.354-6.026-9.547-12.833-13.09-20.033c-1.68-3.415-3.095-6.963-4.538-10.488c-1.316-3.216,0.622-6.537,2.664-8.959
		c1.915-2.272,4.379-4.013,7.047-5.294c2.083-1.002,4.138-0.424,5.66,1.341c3.288,3.817,6.309,7.831,8.756,12.254
		c1.504,2.723,1.091,6.049-1.636,7.9c-0.662,0.451-1.266,0.98-1.883,1.489c-0.541,0.443-1.051,0.896-1.423,1.5
		c-0.678,1.103-0.71,2.404-0.272,3.604c3.361,9.239,9.028,16.423,18.327,20.293c1.487,0.62,2.982,1.342,4.697,1.143
		c2.871-0.336,3.801-3.486,5.814-5.133c1.965-1.606,4.479-1.628,6.597-0.287c2.118,1.342,4.172,2.78,6.213,4.233
		c2.006,1.43,3.999,2.826,5.849,4.455C81.585,69.658,82.199,71.711,81.196,73.838z M64.52,43.729
		c-0.803,0.014-0.486-0.001-0.181-0.011c-1.293-0.046-1.995-0.806-2.134-2.042c-0.102-0.903-0.182-1.82-0.399-2.698
		c-0.424-1.733-1.344-3.336-2.801-4.398c-0.688-0.5-1.466-0.866-2.283-1.101c-1.036-0.3-2.112-0.216-3.146-0.471
		c-1.124-0.274-1.746-1.184-1.569-2.239c0.161-0.959,1.094-1.708,2.141-1.632c6.554,0.473,11.234,3.859,11.9,11.572
		c0.048,0.544,0.104,1.118-0.017,1.641c-0.195,0.845-0.802,1.285-1.413,1.365C64.667,43.716,64.659,43.72,64.52,43.729z
		 M60.445,26.091c-2.008-0.984-4.181-1.596-6.386-1.961c-0.961-0.159-1.935-0.256-2.904-0.391c-1.171-0.163-1.796-0.911-1.743-2.065
		c0.053-1.083,0.844-1.862,2.023-1.794c3.877,0.219,7.622,1.058,11.07,2.883c7.009,3.711,11.016,9.571,12.183,17.395
		c0.053,0.354,0.139,0.708,0.165,1.062c0.068,0.878,0.107,1.758,0.177,2.917c-0.029,0.209-0.046,0.707-0.167,1.173
		c-0.448,1.695-3.021,1.909-3.612,0.197c-0.175-0.507-0.202-1.087-0.202-1.634c-0.008-3.578-0.785-7.152-2.59-10.266
		C66.605,30.408,63.77,27.719,60.445,26.091z M82.107,50.272c-1.354,0.015-1.966-1.116-2.051-2.333
		c-0.175-2.404-0.296-4.818-0.627-7.201c-1.749-12.587-11.786-23-24.313-25.234c-1.885-0.337-3.815-0.425-5.725-0.625
		c-1.208-0.127-2.789-0.2-3.056-1.7c-0.225-1.259,0.839-2.26,2.035-2.325c0.326-0.017,0.654-0.002,0.981,0
		c0.02,0,0.036,0.001,0.055,0.001c-0.004,0-0.008,0-0.012,0c0.011,0,0.033,0.001,0.048,0.001c15.882,0.445,1.252,0.042,0,0
		c-0.013,0-0.023,0-0.036-0.001c16.869,0.497,30.721,11.703,33.69,28.387c0.508,2.847,0.688,5.756,0.912,8.645
		C84.107,49.104,83.418,50.258,82.107,50.272z"/>
	<path fill="#663366" d="M49.396,10.854c0.004,0,0.008,0,0.012,0c0.013,0,0.023,0,0.036,0.001
		C49.43,10.855,49.407,10.855,49.396,10.854z"/>
</g>
</svg>
